<svg width="102" height="48" viewBox="0 0 102 48" fill="none" xmlns="http://www.w3.org/2000/svg">
<circle cx="3.16044" cy="3.01524" r="2.25712" fill="#061012"/>
<circle cx="3.16044" cy="16.9342" r="2.25712" fill="#061012"/>
<circle cx="3.16044" cy="30.8531" r="2.25712" fill="#061012"/>
<circle cx="3.16044" cy="44.772" r="2.25712" fill="#061012"/>
<circle cx="22.4534" cy="3.01524" r="2.25712" fill="#061012"/>
<circle cx="22.4534" cy="16.9342" r="2.25712" fill="#061012"/>
<circle cx="22.4534" cy="30.8531" r="2.25712" fill="#061012"/>
<circle cx="22.4534" cy="44.772" r="2.25712" fill="#061012"/>
<circle cx="41.7464" cy="3.01518" r="2.25712" fill="#7E7E7E"/>
<circle cx="41.7464" cy="16.934" r="2.25712" fill="#7E7E7E"/>
<circle cx="41.7464" cy="30.853" r="2.25712" fill="#7E7E7E"/>
<circle cx="41.7464" cy="44.7719" r="2.25712" fill="#7E7E7E"/>
<circle cx="61.0393" cy="3.01518" r="2.25712" fill="#7E7E7E"/>
<circle cx="61.0393" cy="16.934" r="2.25712" fill="#7E7E7E"/>
<circle cx="61.0393" cy="30.853" r="2.25712" fill="#7E7E7E"/>
<circle cx="61.0393" cy="44.7719" r="2.25712" fill="#7E7E7E"/>
<circle cx="80.3323" cy="3.01524" r="2.25712" fill="#A5A5A5"/>
<circle cx="80.3323" cy="16.9342" r="2.25712" fill="#A5A5A5"/>
<circle cx="80.3323" cy="30.8531" r="2.25712" fill="#A5A5A5"/>
<circle cx="80.3323" cy="44.772" r="2.25712" fill="#A5A5A5"/>
<circle cx="99.6253" cy="3.01524" r="2.25712" fill="#A5A5A5"/>
<circle cx="99.6253" cy="16.9342" r="2.25712" fill="#A5A5A5"/>
<circle cx="99.6253" cy="30.8531" r="2.25712" fill="#A5A5A5"/>
<circle cx="99.6253" cy="44.772" r="2.25712" fill="#A5A5A5"/>
</svg>
