<svg width="220" height="336" viewBox="0 0 220 336" fill="none" xmlns="http://www.w3.org/2000/svg">
<g clip-path="url(#clip0_1206_36244)">
<path d="M109.686 -0.0367246C110.036 -0.0357485 110.036 -0.0357485 110.393 -0.0347527C116.405 -0.0151378 122.103 0.467273 128.037 1.46852C128.278 1.50875 128.518 1.54897 128.766 1.59042C131.714 2.09016 134.613 2.7524 137.5 3.52446C137.855 3.6193 137.855 3.6193 138.217 3.71606C141.144 4.50548 144.04 5.36516 146.907 6.35139C147.145 6.43272 147.383 6.51405 147.628 6.59784C148.956 7.06486 150.199 7.6091 151.449 8.2513C152.193 8.61825 152.961 8.88737 153.745 9.15995C156.044 10.0177 158.158 11.1737 160.312 12.3382C160.972 12.6887 161.644 13.0095 162.32 13.3269C168.335 16.304 174.105 20.333 179.193 24.6713C179.76 25.1248 180.326 25.5776 180.894 26.0297C181.99 26.9191 183.01 27.8353 183.99 28.8487C184.508 29.3627 185.045 29.834 185.602 30.3057C186.929 31.4514 188.174 32.6669 189.413 33.9047C189.625 34.1139 189.837 34.3231 190.055 34.5386C191.424 35.9005 192.721 37.3057 193.978 38.7692C194.221 39.0483 194.463 39.3273 194.713 39.6148C196.653 41.8969 198.436 44.2727 200.188 46.6993C200.373 46.9526 200.558 47.2059 200.749 47.4668C202.087 49.323 203.294 51.2565 204.502 53.1975C205.076 54.1192 205.669 55.0269 206.268 55.9327C208.549 59.4954 210.338 63.3065 212.015 67.1774C212.348 67.9276 212.698 68.6684 213.047 69.411C213.798 71.0468 214.394 72.7098 214.954 74.4178C215.056 74.7231 215.157 75.0284 215.261 75.343C216.426 78.8964 217.436 82.4883 218.423 86.0938C218.504 86.391 218.586 86.6881 218.67 86.9943C218.826 87.5693 218.983 88.1446 219.138 88.7201C219.208 88.9779 219.277 89.2357 219.349 89.5013C219.411 89.7296 219.472 89.958 219.536 90.1933C219.692 90.7728 219.692 90.7728 220 91.3427C220.039 92.1275 220.013 92.9059 220 93.6923C218.335 93.2295 216.943 92.4261 215.453 91.5813C213.067 90.2539 210.67 89.0734 208.139 88.0462C207.579 87.8177 207.024 87.5811 206.468 87.3432C199.776 84.5219 192.621 83.6426 185.403 83.6512C185.174 83.6512 184.946 83.6512 184.71 83.6512C180.427 83.6559 176.259 83.7937 172.097 84.8811C171.723 84.9712 171.35 85.0613 170.966 85.1542C167.266 86.0534 163.701 87.0255 160.269 88.6993C160.092 88.7841 159.916 88.869 159.734 88.9564C156.088 90.7116 152.566 92.6387 149.143 94.7937C148.971 94.9008 148.8 95.0079 148.623 95.1183C147.662 95.7333 146.851 96.3824 146.075 97.2168C145.317 96.8473 144.58 96.4579 143.852 96.0328C140.276 93.9799 136.588 92.3109 132.769 90.7552C132.544 90.6628 132.318 90.5703 132.087 90.475C129.124 89.2699 126.144 88.4561 123.011 87.8182C122.804 87.7754 122.598 87.7326 122.386 87.6885C120.075 87.2134 117.789 86.8412 115.427 86.7053C114.731 86.6433 114.731 86.6433 113.844 86.3496C113.05 86.3212 112.264 86.3085 111.47 86.3106C111.122 86.3102 111.122 86.3102 110.767 86.3098C110.276 86.3096 109.785 86.3101 109.294 86.3114C108.544 86.3129 107.794 86.3114 107.043 86.3095C106.566 86.3097 106.089 86.3101 105.612 86.3106C105.276 86.3097 105.276 86.3097 104.933 86.3088C103.911 86.3133 102.997 86.3601 102.016 86.6433C101.601 86.6811 101.185 86.7088 100.768 86.7282C93.1293 87.187 85.8965 89.4117 78.9514 92.5175C78.643 92.6519 78.3347 92.7863 78.017 92.9248C73.7776 94.6595 73.7776 94.6595 70.0804 97.2168C68.9854 97.4087 68.6099 97.2222 67.6779 96.5927C67.498 96.4567 67.3181 96.3208 67.1327 96.1808C59.1772 90.4519 48.0997 87.1988 38.4043 86.7592C36.7278 86.6738 36.7278 86.6738 36.0751 86.3496C35.5494 86.3213 35.0226 86.3112 34.4961 86.3106C34.0247 86.3101 34.0247 86.3101 33.5437 86.3095C33.2142 86.3106 32.8847 86.3118 32.5452 86.3129C32.2168 86.3118 31.8884 86.3107 31.5501 86.3095C31.2354 86.3099 30.9207 86.3102 30.5966 86.3106C30.1632 86.3111 30.1632 86.3111 29.7211 86.3116C28.9403 86.3187 28.9403 86.3187 28.0912 86.6433C27.6627 86.6957 27.2326 86.7365 26.8021 86.7696C26.5473 86.7906 26.2926 86.8116 26.03 86.8332C25.7588 86.8554 25.4876 86.8775 25.2081 86.9003C21.9364 87.1882 18.7912 87.6389 15.6718 88.6993C15.1145 88.8659 14.5571 89.0325 13.9994 89.1982C12.1335 89.7583 10.3511 90.3708 8.59008 91.2096C7.17468 91.8792 5.73589 92.4964 4.30028 93.1219C2.84417 93.761 1.41891 94.4441 -0.000200383 95.1608C-0.103794 93.3773 0.189732 91.904 0.655882 90.1827C0.862379 89.3818 1.01444 88.5972 1.14563 87.7815C1.40611 86.2857 1.79003 84.8369 2.19906 83.3759C2.25981 83.1585 2.32056 82.9411 2.38315 82.7172C2.75499 81.4125 3.1641 80.1248 3.60168 78.8405C3.87233 78.0419 4.13437 77.2409 4.39601 76.4394C4.59389 75.8389 4.79179 75.2385 4.98972 74.6381C5.08616 74.3409 5.18259 74.0437 5.28195 73.7375C5.87359 71.9517 6.55492 70.2489 7.35805 68.5466C7.73107 67.7546 8.06423 66.951 8.39026 66.139C11.9916 57.5075 17.2974 49.6256 23.0643 42.2937C23.2442 42.0574 23.4241 41.8212 23.6095 41.5778C26.4928 37.8598 29.9377 34.5617 33.2659 31.243C33.5096 30.9996 33.7533 30.7562 34.0043 30.5054C35.8751 28.6522 37.809 26.9052 39.8822 25.2771C40.6145 24.7016 41.3457 24.1264 42.0664 23.5366C45.7488 20.5373 49.688 17.9149 53.817 15.5664C54.0024 15.4602 54.1878 15.354 54.3788 15.2446C55.76 14.4551 57.1507 13.6838 58.5482 12.9231C58.7772 12.7983 59.0063 12.6735 59.2422 12.5449C61.8291 11.1433 64.3763 9.82312 67.1535 8.83298C67.9944 8.52341 68.7906 8.16626 69.5999 7.78321C71.5725 6.87232 73.6312 6.23812 75.6987 5.58041C76.1364 5.43433 76.5738 5.2876 77.0109 5.13985C77.4604 4.99242 77.9101 4.84567 78.36 4.69929C78.8986 4.52153 78.8986 4.52153 79.4481 4.34019C81.5746 3.65023 83.6367 3.077 85.8576 2.75807C86.5488 2.65667 87.2164 2.5257 87.8963 2.368C89.7133 1.95325 91.5464 1.62199 93.3806 1.29227C93.8158 1.21379 94.2509 1.13434 94.6858 1.05392C95.3483 0.931983 96.0114 0.814345 96.6749 0.697541C96.8681 0.661408 97.0613 0.625275 97.2604 0.588047C101.341 -0.112286 105.558 -0.0521769 109.686 -0.0367246Z" fill="#010101"/>
<path d="M109.797 200.491C110.014 200.491 110.232 200.491 110.456 200.491C114.266 200.498 117.917 200.881 121.658 201.627C122.343 201.761 123.027 201.879 123.717 201.989C127.765 202.657 131.852 203.726 135.546 205.526C137.044 206.23 138.609 206.781 140.161 207.357C140.161 207.551 140.161 207.744 140.161 207.944C140.354 207.962 140.546 207.981 140.744 207.999C142.026 208.341 143.036 209.009 144.153 209.706C144.389 209.852 144.625 209.997 144.868 210.147C154.482 216.125 164.434 224.766 169.399 235.149C169.959 236.303 170.549 237.426 171.185 238.541C172.639 241.12 173.613 243.808 174.531 246.613C174.681 247.068 174.835 247.521 174.993 247.972C175.522 249.494 175.921 251.013 176.255 252.588C176.303 252.806 176.35 253.024 176.399 253.248C176.495 253.69 176.59 254.132 176.684 254.574C176.778 255.002 176.878 255.428 176.984 255.853C177.453 257.761 177.616 259.663 177.752 261.619C177.777 261.969 177.802 262.318 177.827 262.678C178.032 265.783 178.127 268.863 178.011 271.972C177.997 272.357 177.997 272.357 177.984 272.75C177.474 284.688 172.963 298.84 165 308.098C164.686 308.508 164.371 308.918 164.058 309.328C163.067 310.596 162.007 311.786 160.917 312.971C160.339 313.602 159.775 314.243 159.216 314.89C157.195 317.181 154.985 319.134 152.581 321.021C152.429 321.142 152.278 321.262 152.122 321.386C145.524 326.631 137.605 330.824 129.44 333.05C128.467 333.32 127.515 333.621 126.559 333.944C121.261 335.63 115.886 336.192 110.347 336.137C109.401 336.129 108.455 336.131 107.509 336.135C104.262 336.132 101.318 335.962 98.1722 335.119C97.6088 334.997 97.0448 334.879 96.48 334.763C93.7929 334.187 91.2275 333.583 88.6868 332.527C87.7872 332.168 86.888 331.896 85.9562 331.631C81.7266 330.36 77.9506 328.337 74.2206 326.014C74.0257 325.893 73.8308 325.772 73.6299 325.648C71.0381 324.026 68.6889 322.23 66.3866 320.227C65.6995 319.64 64.9873 319.085 64.2777 318.525C61.9796 316.666 59.7292 314.577 57.9572 312.21C57.9572 312.016 57.9572 311.822 57.9572 311.622C57.762 311.622 57.5668 311.622 57.3658 311.622C56.7382 310.855 56.1644 310.08 55.5916 309.273C55.4751 309.11 55.3586 308.948 55.2386 308.781C50.4035 302.026 46.793 294.898 44.355 286.951C44.2654 286.683 44.1759 286.416 44.0836 286.14C42.9031 282.539 42.4871 278.786 42.0818 275.038C42.043 274.687 42.0041 274.336 41.964 273.975C41.5513 269.943 41.6481 265.997 42.0449 261.968C42.0735 261.674 42.0735 261.674 42.1028 261.374C42.4607 257.781 43.1006 254.31 44.0593 250.825C44.1545 250.474 44.1544 250.474 44.2515 250.117C44.855 247.916 45.5028 245.74 46.4064 243.64C46.6378 243.092 46.8508 242.536 47.0533 241.976C49.5191 235.336 53.5764 229.554 58.2182 224.248C58.8429 223.571 58.8429 223.571 59.14 222.923C59.3351 222.923 59.5303 222.923 59.7314 222.923C59.7927 222.767 59.8541 222.61 59.9173 222.449C60.4868 221.465 61.2697 220.721 62.0785 219.931C62.2503 219.762 62.4222 219.593 62.5993 219.419C66.8035 215.337 71.7282 211.91 76.8819 209.119C77.1039 208.997 77.326 208.876 77.5547 208.75C80.223 207.295 82.8321 205.96 85.7298 205.013C86.5769 204.734 87.389 204.415 88.2109 204.071C89.3293 203.617 90.4199 203.316 91.6068 203.096C92.2854 202.959 92.2854 202.959 93.0206 202.678C94.4214 202.243 95.8393 202.017 97.2851 201.776C97.5668 201.728 97.8485 201.679 98.1387 201.629C99.0362 201.477 99.9346 201.332 100.834 201.189C101.155 201.135 101.477 201.081 101.809 201.025C104.478 200.605 107.101 200.485 109.797 200.491ZM127.351 234.168C127.218 234.34 127.084 234.512 126.947 234.69C126.289 235.501 125.622 236.15 124.804 236.801C122.647 238.627 121.382 241.196 120.35 243.776C118.775 243.644 117.414 243.402 115.914 242.895C113.741 242.403 111.635 242.203 109.409 242.216C109.117 242.217 108.826 242.218 108.525 242.218C104.781 242.27 101.116 242.747 97.6178 244.107C96.4859 244.422 95.4817 244.61 94.3281 244.364C93.4537 243.874 92.7214 243.251 91.9625 242.602C90.2786 241.239 88.6163 239.958 86.3443 239.958C86.4686 241.028 87.0117 241.623 87.7061 242.418C88.9967 243.912 90.3135 245.652 90.7798 247.595C90.4296 248.707 89.5976 249.445 88.8023 250.275C83.1923 256.286 81.0321 263.035 81.2657 271.07C81.3686 272.867 81.7856 274.424 82.5002 276.084C82.7157 276.586 82.7157 276.586 82.9356 277.098C84.0855 279.55 85.5518 281.678 87.1748 283.837C87.6979 284.536 88.2048 285.247 88.7099 285.96C88.8684 286.182 89.027 286.404 89.1904 286.632C89.88 287.671 90.2682 288.595 90.521 289.815C90.5706 290.05 90.6201 290.284 90.6712 290.526C90.7249 290.792 90.7249 290.792 90.7798 291.063C91.2961 290.294 91.4857 289.877 91.6668 289.007C93.9159 289.332 96.1721 291.759 97.5566 293.467C98.4623 294.977 98.51 296.69 98.4679 298.406C98.5655 298.6 98.6631 298.793 98.7636 298.993C99.0564 298.993 99.3491 298.993 99.6507 298.993C99.6507 297.636 99.6507 296.279 99.6507 294.881C100.75 294.881 100.928 295.134 101.721 295.854C101.922 296.035 102.123 296.215 102.33 296.401C103.591 297.58 104.428 298.377 104.538 300.168C104.569 300.595 104.569 300.595 104.601 301.031C104.64 301.63 104.677 302.23 104.714 302.83C104.735 303.114 104.756 303.399 104.778 303.692C104.794 303.953 104.811 304.213 104.828 304.482C104.999 305.28 105.198 305.568 105.86 306.042C106.153 306.042 106.446 306.042 106.747 306.042C106.801 305.765 106.801 305.765 106.856 305.482C106.96 304.957 107.066 304.433 107.174 303.909C107.274 303.42 107.37 302.93 107.458 302.438C107.758 300.955 108.267 300.262 109.409 299.287C109.622 299.038 109.836 298.79 110.056 298.534C111.952 296.901 114.385 296.467 116.801 296.056C116.606 297.025 116.411 297.995 116.21 298.993C116.405 298.993 116.6 298.993 116.801 298.993C117.119 298.214 117.421 297.441 117.688 296.643C117.591 296.45 117.493 296.256 117.393 296.056C117.65 295.976 117.65 295.976 117.912 295.894C118.994 295.549 119.989 295.209 120.996 294.679C121.934 294.245 122.58 294.221 123.602 294.294C123.553 294.633 123.503 294.972 123.452 295.322C123.298 296.551 123.293 297.757 123.342 298.993C123.349 299.205 123.356 299.417 123.364 299.635C123.386 300.302 123.411 300.969 123.436 301.636C123.452 302.093 123.467 302.549 123.483 303.005C123.521 304.115 123.561 305.226 123.602 306.336C123.895 306.336 124.188 306.336 124.489 306.336C124.482 305.818 124.482 305.818 124.475 305.29C124.459 304.003 124.449 302.716 124.441 301.429C124.436 300.874 124.43 300.318 124.423 299.762C124.412 298.961 124.407 298.16 124.403 297.358C124.396 296.989 124.396 296.989 124.389 296.612C124.388 294.723 124.725 293.351 125.931 291.834C126.642 291.294 127.156 291.16 128.038 291.063C128.135 290.694 128.233 290.324 128.334 289.943C128.954 288.101 130.1 286.708 131.29 285.189C133.586 282.216 135.682 279.364 136.909 275.79C137.015 275.503 137.121 275.215 137.231 274.918C137.695 273.262 137.597 271.53 137.593 269.824C137.597 269.48 137.602 269.136 137.607 268.781C137.609 265.328 136.622 262.712 135.135 259.636C135.029 259.401 134.923 259.166 134.815 258.924C132.849 254.709 129.636 250.847 126.045 247.893C124.226 246.377 124.226 246.377 124.046 244.988C124.217 244.417 124.217 244.417 124.489 243.776C124.592 243.511 124.694 243.245 124.799 242.971C125.168 242.055 125.566 241.155 125.968 240.252C126.222 239.64 126.474 239.029 126.726 238.416C127.159 237.379 127.615 236.368 128.13 235.369C128.673 234.475 128.673 234.475 128.629 233.79C127.757 233.688 127.757 233.688 127.351 234.168ZM127.742 291.65C127.354 291.969 127.354 291.969 127.418 292.744C127.421 293.068 127.424 293.391 127.428 293.725C127.431 294.049 127.433 294.374 127.436 294.708C127.439 294.959 127.443 295.21 127.446 295.469C127.642 295.469 127.837 295.469 128.038 295.469C128.038 294.209 128.038 292.949 128.038 291.65C127.94 291.65 127.843 291.65 127.742 291.65ZM90.7798 291.944C90.3571 292.636 90.1627 292.966 90.2992 293.78C90.3602 293.949 90.4212 294.119 90.4841 294.294C90.7768 294.197 91.0695 294.1 91.3712 294C91.2736 293.322 91.176 292.643 91.0755 291.944C90.9779 291.944 90.8803 291.944 90.7798 291.944ZM90.1884 296.937C90.1884 297.325 90.1884 297.713 90.1884 298.112C90.4811 298.112 90.7738 298.112 91.0755 298.112C91.0755 297.724 91.0755 297.337 91.0755 296.937C90.7827 296.937 90.49 296.937 90.1884 296.937ZM116.801 300.168C117.097 301.049 117.097 301.049 117.097 301.049L116.801 300.168ZM116.506 302.518C116.506 303.099 116.506 303.681 116.506 304.28C116.798 304.377 117.091 304.474 117.393 304.574C117.393 303.992 117.393 303.41 117.393 302.811C117.1 302.714 116.807 302.617 116.506 302.518ZM106.747 306.923C106.367 307.234 106.367 307.234 106.423 307.952C106.426 308.249 106.43 308.545 106.433 308.851C106.436 309.148 106.439 309.445 106.441 309.751C106.445 309.981 106.448 310.211 106.452 310.448C106.745 310.448 107.037 310.448 107.339 310.448C107.363 309.225 107.334 308.114 107.043 306.923C106.946 306.923 106.848 306.923 106.747 306.923Z" fill="#010101"/>
<path d="M184.565 98.0051C185.304 98.0061 186.043 97.9992 186.782 97.9917C198.845 97.944 209.092 103.919 217.93 111.608C217.735 112.093 217.54 112.578 217.339 113.077C217.144 113.077 216.948 113.077 216.747 113.077C216.678 113.243 216.608 113.409 216.536 113.581C216.069 114.405 215.497 114.94 214.807 115.592C213.745 116.622 212.775 117.67 211.85 118.823C210.633 120.333 209.359 121.802 207.876 123.063C207.681 123.063 207.486 123.063 207.285 123.063C207.164 123.326 207.164 123.326 207.041 123.595C206.702 124.221 206.377 124.624 205.873 125.121C205.706 125.288 205.539 125.454 205.367 125.625C205.184 125.804 205.002 125.983 204.813 126.167C204.621 126.358 204.428 126.55 204.229 126.747C203.591 127.379 202.95 128.009 202.31 128.639C201.865 129.079 201.42 129.52 200.975 129.96C199.802 131.121 198.628 132.281 197.452 133.44C195.577 135.29 193.703 137.143 191.83 138.996C191.178 139.641 190.524 140.285 189.871 140.929C189.466 141.328 189.062 141.728 188.657 142.128C188.478 142.305 188.298 142.481 188.113 142.663C186.853 143.911 185.674 145.217 184.516 146.559C184.092 147.05 183.667 147.539 183.241 148.028C182.95 148.364 182.95 148.364 182.653 148.707C182.151 149.203 182.151 149.203 181.559 149.203C181.468 149.437 181.468 149.437 181.374 149.676C180.801 150.665 180.008 151.405 179.196 152.199C179.015 152.379 178.834 152.559 178.647 152.744C178.047 153.338 177.445 153.93 176.843 154.522C176.424 154.936 176.006 155.35 175.587 155.764C174.485 156.856 173.38 157.945 172.275 159.035C170.511 160.774 168.75 162.515 166.989 164.257C166.376 164.863 165.762 165.468 165.148 166.073C163.358 167.839 161.597 169.604 159.973 171.524C156.674 175.217 153.111 178.657 149.587 182.135C148.521 183.186 147.456 184.238 146.392 185.291C145.97 185.709 145.546 186.126 145.123 186.542C144.741 186.921 144.741 186.921 144.351 187.307C144.126 187.528 143.902 187.749 143.671 187.977C143.071 188.577 143.071 188.577 142.527 189.441C142.332 189.441 142.137 189.441 141.935 189.441C141.935 189.634 141.935 189.828 141.935 190.028C141.491 190.452 141.491 190.452 140.882 190.946C139.786 191.86 138.908 192.833 138.043 193.963C137.25 194.65 136.783 194.7 135.726 194.727C134.679 194.509 133.674 194.193 132.658 193.864C132.384 193.779 132.11 193.694 131.827 193.606C131.154 193.396 130.483 193.182 129.812 192.965C129.541 191.895 129.519 191.122 129.756 190.046C129.807 189.807 129.858 189.568 129.91 189.322C130.132 188.464 130.413 187.637 130.699 186.797C131.001 185.838 131.294 184.877 131.586 183.915C131.663 183.665 131.74 183.415 131.819 183.157C132.254 181.727 132.633 180.3 132.939 178.837C133.118 178.042 133.387 177.287 133.656 176.517C134.243 174.67 134.763 172.804 135.282 170.937C136.543 166.404 136.543 166.404 137.182 164.572C137.586 163.328 137.912 162.07 138.239 160.804C138.637 159.266 139.059 157.757 139.57 156.252C139.865 155.172 140.147 154.089 140.428 153.006C140.647 152.195 140.897 151.402 141.168 150.607C141.731 148.961 142.21 147.293 142.693 145.623C143.643 142.348 143.643 142.348 144.023 141.241C144.516 139.735 144.858 138.188 145.231 136.649C145.538 135.402 145.877 134.236 146.371 133.049C146.607 132.249 146.835 131.449 147.055 130.644C147.187 130.165 147.32 129.686 147.452 129.207C147.519 128.964 147.586 128.722 147.654 128.472C148.205 126.471 148.765 124.473 149.328 122.475C149.419 122.151 149.511 121.827 149.605 121.493C149.911 120.407 150.22 119.321 150.529 118.235C150.626 117.891 150.723 117.546 150.824 117.191C152.406 111.654 154.082 109.095 159.086 106.028C159.262 105.919 159.439 105.81 159.621 105.697C165.006 102.374 170.57 99.8926 176.828 98.6853C177.016 98.6362 177.205 98.5872 177.399 98.5366C179.769 97.9672 182.142 97.9988 184.565 98.0051Z" fill="#010101"/>
<path d="M31.3786 100.712C39.0972 100.4 46.6057 102.006 53.5216 105.44C53.8879 105.611 54.2545 105.781 54.6213 105.95C62.2661 109.534 62.2661 109.534 63.6124 112.851C64.0295 114.162 64.428 115.475 64.7882 116.803C65.0591 117.795 65.3748 118.761 65.71 119.732C66.1002 120.893 66.4523 122.066 66.8096 123.237C67.1202 124.226 67.4485 125.208 67.78 126.19C68.1584 127.322 68.5191 128.46 68.8795 129.598C68.9564 129.84 69.0334 130.082 69.1126 130.332C69.5582 131.738 69.9979 133.145 70.4319 134.554C70.8836 136.019 71.3609 137.472 71.855 138.923C72.4527 140.686 73.0307 142.454 73.5922 144.228C73.6682 144.467 73.7441 144.707 73.8224 144.953C74.4443 146.915 75.0613 148.878 75.676 150.842C76.1543 152.348 76.6655 153.843 77.1741 155.34C79.3005 161.617 79.3005 161.617 80.1878 164.696C80.7001 166.468 81.2544 168.226 81.8163 169.982C81.9044 170.259 81.9925 170.536 82.0833 170.821C82.1671 171.082 82.2509 171.343 82.3373 171.612C82.4486 171.958 82.4486 171.958 82.5621 172.312C82.7267 172.792 82.9072 173.266 83.099 173.735C83.3614 174.396 83.5562 175.033 83.7268 175.722C83.7863 175.956 83.8457 176.19 83.907 176.431C84.0272 176.911 84.1466 177.391 84.2651 177.872C84.6516 179.384 85.155 180.791 85.7557 182.232C86.2484 183.489 86.5974 184.782 86.9541 186.081C87.488 188.004 88.0575 189.903 88.7098 191.79C88.8074 192.081 88.905 192.372 89.0055 192.671C88.7098 193.259 88.7098 193.259 88.2111 193.451C87.8931 193.533 87.8931 193.533 87.5686 193.617C87.3361 193.678 87.1036 193.74 86.864 193.804C86.4969 193.897 86.4969 193.897 86.1224 193.993C85.6433 194.118 85.1643 194.243 84.6855 194.369C84.3439 194.459 84.3439 194.459 83.9954 194.55C83.3476 194.725 83.3476 194.725 82.6064 195.067C81.564 195.437 80.944 195.497 79.8388 195.315C78.8961 194.648 78.1319 193.84 77.3439 193.002C77.1219 192.773 76.9 192.545 76.6713 192.309C75.1598 190.738 73.7629 189.12 72.4464 187.385C72.1357 187.008 71.8217 186.635 71.5038 186.265C71.3777 186.117 71.2515 185.97 71.1215 185.818C70.5017 185.143 69.848 184.503 69.1937 183.86C68.3674 183.047 67.5421 182.233 66.7172 181.419C66.5015 181.207 66.2857 180.995 66.0634 180.777C64.834 179.561 63.6571 178.32 62.5304 177.01C62.1654 176.595 61.7733 176.204 61.3761 175.82C60.9141 175.343 60.9141 175.343 60.9141 174.755C60.6214 174.658 60.3286 174.561 60.027 174.461C59.623 173.98 59.2301 173.489 58.8442 172.993C58.3523 172.503 57.8592 172.013 57.3657 171.524C56.7012 170.826 56.0452 170.119 55.3882 169.413C54.1688 168.107 52.9387 166.822 51.655 165.577C50.7008 164.643 49.844 163.683 49.0122 162.64C47.9345 161.296 46.7714 160.094 45.5378 158.895C44.3527 157.743 43.2325 156.599 42.2112 155.297C40.7673 153.473 39.0997 151.881 37.4231 150.269C36.3661 149.243 35.3825 148.227 34.4976 147.049C33.1706 145.301 31.5851 143.809 30.0136 142.282C26.5393 138.895 26.5393 138.895 24.9915 137.094C24.2918 136.281 23.5575 135.502 22.8244 134.719C22.5163 134.389 22.2083 134.059 21.9003 133.728C21.7486 133.565 21.5969 133.402 21.4406 133.235C18.6699 130.254 18.6699 130.254 17.5728 128.987C16.3247 127.547 15.0078 126.207 13.6392 124.88C12.091 123.363 10.6706 121.827 9.33082 120.123C8.07957 118.668 6.68886 117.347 5.3043 116.017C4.16829 114.916 3.11645 113.889 2.36572 112.489C2.75128 111.341 3.47835 110.88 4.41713 110.176C4.59109 110.045 4.76505 109.914 4.94428 109.778C6.15201 108.885 7.36822 108.161 8.73942 107.537C9.52284 107.175 10.2635 106.763 11.0149 106.34C16.1789 103.535 21.6779 101.779 27.5001 101.035C27.7769 100.996 28.0536 100.958 28.3387 100.918C29.351 100.8 30.361 100.759 31.3786 100.712Z" fill="#010101"/>
<path d="M106.092 100.717C110.253 100.612 114.202 100.78 118.28 101.622C118.488 101.663 118.696 101.704 118.911 101.746C125.051 102.966 130.611 105.292 136.021 108.378C136.314 108.529 136.607 108.68 136.909 108.837C137.642 109.724 137.565 110.03 137.481 111.149C137.34 112.282 137.043 113.199 136.613 114.252C136.367 115.061 136.149 115.877 135.929 116.693C135.455 118.426 134.951 120.143 134.395 121.851C133.735 123.888 133.204 125.948 132.706 128.03C132.373 129.405 131.981 130.737 131.519 132.074C131.104 133.31 130.758 134.566 130.403 135.821C129.83 137.84 129.242 139.853 128.629 141.86C128.015 143.876 127.424 145.897 126.844 147.922C126.614 148.719 126.377 149.512 126.134 150.304C125.164 153.496 124.287 156.715 123.488 159.953C123.272 160.791 123.001 161.602 122.715 162.42C122.019 164.572 121.449 166.758 120.882 168.947C120.551 170.216 120.183 171.457 119.758 172.699C119.456 173.741 119.163 174.786 118.871 175.83C118.575 176.811 118.575 176.811 118.283 177.518C117.868 178.575 117.613 179.659 117.337 180.758C116.506 183.989 115.481 187.154 114.435 190.322C112.93 190.336 111.425 190.347 109.92 190.354C109.408 190.357 108.895 190.361 108.383 190.366C107.648 190.373 106.912 190.376 106.177 190.379C105.947 190.382 105.717 190.385 105.48 190.388C104.917 190.388 104.353 190.358 103.79 190.322C103.144 189.68 103.067 189.417 102.859 188.559C102.77 188.204 102.77 188.204 102.679 187.842C102.56 187.351 102.44 186.859 102.321 186.367C101.936 184.834 101.437 183.412 100.828 181.954C100.349 180.737 100.013 179.485 99.669 178.225C98.9511 175.667 98.1543 173.155 97.2849 170.643C96.2867 167.754 95.3381 164.866 94.5456 161.913C94.1364 160.396 93.6574 158.912 93.1451 157.427C91.8829 153.742 90.6376 150.064 89.62 146.303C89.2103 144.816 88.6968 143.412 88.1062 141.986C87.6763 140.905 87.3509 139.801 87.0278 138.684C86.8769 138.174 86.7256 137.664 86.5739 137.154C86.4503 136.738 86.4503 136.738 86.3242 136.314C85.7904 134.542 85.2344 132.777 84.6807 131.011C84.4612 130.311 84.2418 129.611 84.0223 128.911C83.9172 128.575 83.8121 128.24 83.7038 127.895C83.2863 126.559 82.8731 125.221 82.4608 123.884C82.0979 122.723 81.7101 121.571 81.3171 120.42C80.6667 118.507 80.0345 116.594 79.4609 114.658C79.2441 113.948 79.0082 113.247 78.7667 112.545C78.4622 111.651 78.2161 110.78 78.0645 109.846C84.61 103.345 97.2212 100.978 106.092 100.717Z" fill="#010101"/>
<path d="M121.828 251.413C123.669 251.641 124.508 252.705 125.672 254.056C126.148 254.706 126.589 255.367 127.021 256.047C127.441 256.691 127.894 257.288 128.37 257.892C131.567 262.095 131.695 266.907 131.586 271.972C131.579 272.383 131.579 272.383 131.571 272.803C131.255 278.358 126.787 283.177 122.855 286.777C120.644 288.705 118.393 289.653 115.618 290.476C115.326 290.572 115.033 290.669 114.731 290.769C114.125 290.819 114.125 290.819 113.456 290.824C113.238 290.828 113.019 290.833 112.794 290.837C111.902 290.754 111.135 290.486 110.296 290.182C110.015 285.865 111.125 281.796 112.386 277.699C112.889 276.059 113.321 274.407 113.733 272.743C113.827 272.368 113.827 272.368 113.922 271.985C114.094 271.295 114.265 270.606 114.436 269.916C114.88 268.134 115.374 266.497 116.161 264.836C116.623 263.77 116.995 262.679 117.374 261.582C118.064 259.603 118.845 257.708 119.758 255.818C120.039 255.221 120.319 254.624 120.599 254.026C121.007 253.154 121.418 252.283 121.828 251.413ZM126.264 258.168C126.459 258.362 126.654 258.556 126.855 258.755C126.855 258.561 126.855 258.368 126.855 258.168C126.66 258.168 126.465 258.168 126.264 258.168ZM126.559 260.224C126.559 261.096 126.559 261.968 126.559 262.867C126.754 262.867 126.95 262.867 127.151 262.867C127.551 262.072 127.466 261.396 127.446 260.517C127.154 260.421 126.861 260.324 126.559 260.224Z" fill="#020201"/>
<path d="M109.353 246.071C109.821 246.065 109.821 246.065 110.298 246.06C112.668 246.056 114.632 246.328 116.801 247.337C117.139 247.493 117.139 247.493 117.485 247.652C117.649 247.73 117.814 247.808 117.984 247.888C117.768 250.994 116.837 253.866 115.663 256.736C114.984 258.419 114.348 260.12 113.714 261.821C113.607 262.11 113.607 262.11 113.497 262.405C112.457 265.207 111.55 268.01 110.858 270.918C110.632 271.811 110.35 272.593 110 273.441C109.701 274.468 109.421 275.5 109.142 276.533C108.817 277.553 108.817 277.553 108.355 278.422C107.848 279.487 107.736 280.404 107.616 281.573C107.401 283.627 107.401 283.627 106.747 284.601C105.988 283.847 105.971 283.352 105.768 282.307C105.043 278.769 104.256 275.231 103.217 271.77C102.739 270.169 102.361 268.559 101.998 266.928C101.067 262.76 99.8432 258.778 98.3797 254.767C97.7285 252.939 97.0982 251.027 97.2847 249.063C97.8925 248.202 98.6203 247.962 99.6133 247.668C99.9873 247.552 99.9873 247.552 100.369 247.434C101.207 247.287 101.791 247.379 102.607 247.594C102.705 248.467 102.802 249.339 102.903 250.238C102.911 250.036 102.918 249.834 102.926 249.626C102.943 249.362 102.96 249.097 102.977 248.824C102.991 248.562 103.004 248.3 103.018 248.029C103.199 247.301 103.199 247.301 103.712 246.783C105.427 245.852 107.456 246.072 109.353 246.071Z" fill="#010101"/>
<path d="M91.9626 252.294C92.6441 252.345 92.6441 252.345 93.4411 252.587C93.9424 253.261 93.9424 253.261 94.3651 254.111C94.5062 254.388 94.6472 254.665 94.7925 254.95C94.932 255.236 95.0715 255.523 95.2153 255.818C95.4305 256.223 95.4305 256.223 95.6501 256.636C96.1003 257.576 96.3918 258.465 96.6649 259.469C97.077 260.951 97.5021 262.426 97.9516 263.897C98.0639 264.266 98.1761 264.634 98.2918 265.014C98.4635 265.576 98.6351 266.137 98.8075 266.699C100.746 273.023 100.746 273.023 101.148 276.01C101.31 277.208 101.551 278.349 101.855 279.518C102.184 280.9 102.408 282.302 102.645 283.702C102.698 284.005 102.752 284.309 102.808 284.621C103.11 286.405 103.256 288.08 103.199 289.888C102.608 290.182 102.608 290.182 101.758 289.925C95.2732 286.909 88.9197 279.543 86.3478 272.99C84.7354 268.443 85.0119 263.412 87.0835 259.104C88.2211 256.838 89.6802 255.057 91.3712 253.175C91.5663 252.884 91.7615 252.593 91.9626 252.294Z" fill="#020202"/>
<path d="M125.968 256.112C127.032 256.275 127.446 256.625 128.112 257.452C128.343 257.734 128.343 257.734 128.578 258.022C128.693 258.167 128.807 258.312 128.925 258.461C128.678 259.035 128.678 259.035 128.333 259.636C127.557 259.857 127.557 259.857 126.855 259.93C126.559 259.049 126.559 259.049 126.855 258.168C126.66 258.168 126.465 258.168 126.263 258.168C126.166 257.489 126.068 256.811 125.968 256.112Z" fill="#141413"/>
<path d="M104.086 301.343C104.281 301.343 104.477 301.343 104.678 301.343C104.713 301.601 104.749 301.86 104.786 302.126C104.836 302.467 104.885 302.809 104.936 303.16C104.984 303.497 105.032 303.835 105.082 304.182C105.251 305.069 105.49 305.809 105.86 306.629C105.275 306.436 104.689 306.242 104.086 306.042C103.694 304.482 103.57 302.882 104.086 301.343Z" fill="#10100E"/>
<path d="M171.506 157.427C171.701 157.523 171.896 157.62 172.097 157.72C171.999 158.302 171.902 158.883 171.801 159.482C171.411 159.579 171.021 159.676 170.618 159.776C170.521 159.485 170.423 159.195 170.323 158.895C170.518 158.604 170.713 158.314 170.914 158.014C171.109 158.014 171.304 158.014 171.506 158.014C171.506 157.82 171.506 157.626 171.506 157.427Z" fill="#070707"/>
<path d="M116.505 300.755C116.798 300.852 117.091 300.949 117.393 301.049C117.393 301.534 117.393 302.018 117.393 302.518C116.905 302.518 116.417 302.518 115.914 302.518C115.914 302.13 115.914 301.742 115.914 301.343C116.109 301.343 116.304 301.343 116.505 301.343C116.505 301.149 116.505 300.955 116.505 300.755Z" fill="#21201F"/>
<path d="M103.791 303.105C104.517 304.188 104.681 305.072 104.973 306.336C104.681 306.239 104.388 306.142 104.086 306.042C103.989 305.073 103.891 304.104 103.791 303.105Z" fill="#5B5C57"/>
<path d="M116.801 297.818C116.996 297.818 117.191 297.818 117.393 297.818C117.393 298.593 117.393 299.369 117.393 300.168C117.1 300.071 116.807 299.974 116.505 299.874C116.31 300.068 116.115 300.262 115.914 300.461C116.012 299.977 116.109 299.492 116.21 298.993C116.405 298.993 116.6 298.993 116.801 298.993C116.801 298.605 116.801 298.218 116.801 297.818Z" fill="#191915"/>
<path d="M162.635 226.154C163.207 226.392 163.207 226.392 163.817 226.741C163.915 227.032 164.013 227.323 164.113 227.622C163.559 227.806 163.559 227.806 162.93 227.916C162.735 227.722 162.54 227.528 162.339 227.329C162.45 226.705 162.45 226.705 162.635 226.154Z" fill="#070707"/>
</g>
<defs>
<clipPath id="clip0_1206_36244">
<rect width="220" height="336" fill="white"/>
</clipPath>
</defs>
</svg>
