<svg width="51" height="714" viewBox="0 0 51 714" fill="none" xmlns="http://www.w3.org/2000/svg">
<line x1="0.5" y1="2.18557e-08" x2="0.499955" y2="1024" stroke="#C4C3CB"/>
<line x1="50.5" y1="2.18557e-08" x2="50.5" y2="1024" stroke="#C4C3CB"/>
<line x1="0.749141" y1="42.5675" x2="50.7491" y2="13.5675" stroke="#C4C3CB"/>
<line x1="0.749141" y1="61.5675" x2="50.7491" y2="32.5675" stroke="#C4C3CB"/>
<line x1="0.749141" y1="80.5675" x2="50.7491" y2="51.5675" stroke="#C4C3CB"/>
<line x1="0.749141" y1="99.5675" x2="50.7491" y2="70.5675" stroke="#C4C3CB"/>
<line x1="0.749141" y1="118.567" x2="50.7491" y2="89.5675" stroke="#C4C3CB"/>
<line x1="0.749141" y1="137.567" x2="50.7491" y2="108.567" stroke="#C4C3CB"/>
<line x1="0.749141" y1="156.567" x2="50.7491" y2="127.567" stroke="#C4C3CB"/>
<line x1="0.749141" y1="175.567" x2="50.7491" y2="146.567" stroke="#C4C3CB"/>
<line x1="0.749141" y1="194.567" x2="50.7491" y2="165.567" stroke="#C4C3CB"/>
<line x1="0.749141" y1="213.567" x2="50.7491" y2="184.567" stroke="#C4C3CB"/>
<line x1="0.749141" y1="232.567" x2="50.7491" y2="203.567" stroke="#C4C3CB"/>
<line x1="0.749141" y1="251.567" x2="50.7491" y2="222.567" stroke="#C4C3CB"/>
<line x1="0.749141" y1="270.567" x2="50.7491" y2="241.567" stroke="#C4C3CB"/>
<line x1="0.749141" y1="289.567" x2="50.7491" y2="260.567" stroke="#C4C3CB"/>
<line x1="0.749141" y1="308.567" x2="50.7491" y2="279.567" stroke="#C4C3CB"/>
<line x1="0.749141" y1="327.567" x2="50.7491" y2="298.567" stroke="#C4C3CB"/>
<line x1="0.749141" y1="346.567" x2="50.7491" y2="317.567" stroke="#C4C3CB"/>
<line x1="0.749141" y1="365.567" x2="50.7491" y2="336.567" stroke="#C4C3CB"/>
<line x1="0.749141" y1="384.567" x2="50.7491" y2="355.567" stroke="#C4C3CB"/>
<line x1="0.749141" y1="403.567" x2="50.7491" y2="374.567" stroke="#C4C3CB"/>
<line x1="0.749141" y1="422.567" x2="50.7491" y2="393.567" stroke="#C4C3CB"/>
<line x1="0.749141" y1="441.567" x2="50.7491" y2="412.567" stroke="#C4C3CB"/>
<line x1="0.749141" y1="460.567" x2="50.7491" y2="431.567" stroke="#C4C3CB"/>
<line x1="0.749141" y1="479.567" x2="50.7491" y2="450.567" stroke="#C4C3CB"/>
<line x1="0.749141" y1="498.567" x2="50.7491" y2="469.567" stroke="#C4C3CB"/>
<line x1="0.749141" y1="517.567" x2="50.7491" y2="488.567" stroke="#C4C3CB"/>
<line x1="0.749141" y1="536.567" x2="50.7491" y2="507.567" stroke="#C4C3CB"/>
<line x1="0.749141" y1="555.567" x2="50.7491" y2="526.568" stroke="#C4C3CB"/>
<line x1="0.749141" y1="574.567" x2="50.7491" y2="545.568" stroke="#C4C3CB"/>
<line x1="0.749141" y1="593.567" x2="50.7491" y2="564.568" stroke="#C4C3CB"/>
<line x1="0.749141" y1="612.567" x2="50.7491" y2="583.568" stroke="#C4C3CB"/>
<line x1="0.749141" y1="631.567" x2="50.7491" y2="602.568" stroke="#C4C3CB"/>
<line x1="0.749141" y1="650.567" x2="50.7491" y2="621.568" stroke="#C4C3CB"/>
<line x1="0.749141" y1="669.567" x2="50.7491" y2="640.568" stroke="#C4C3CB"/>
<line x1="0.749141" y1="688.567" x2="50.7491" y2="659.568" stroke="#C4C3CB"/>
<line x1="0.749141" y1="707.567" x2="50.7491" y2="678.568" stroke="#C4C3CB"/>
<line x1="0.749141" y1="726.567" x2="50.7491" y2="697.568" stroke="#C4C3CB"/>
</svg>
